<?xml version="1.0" encoding="UTF-8"?>
<svg xmlns="http://www.w3.org/2000/svg" version="1.1" xmlns:xlink="http://www.w3.org/1999/xlink" viewBox="0 0 443.3 473.45">
  <!-- Generator: Adobe Illustrator 30.4.0, SVG Export Plug-In . SVG Version: 2.1.4 Build 226)  -->
  <defs>
    <style>
      .st0 {
        fill: #d39d5c;
      }

      .st1 {
        fill: #91c5e4;
      }

      .st2 {
        fill: #2b7ebd;
      }

      .st3 {
        fill: #ccd2a0;
      }

      .st4 {
        fill: #955a49;
      }

      .st5 {
        fill: #47a9da;
      }

      .st6 {
        fill: #297aba;
      }

      .st7 {
        fill: #a8d3b2;
      }

      .st8 {
        fill: #a59871;
      }

      .st9 {
        fill: #a0cbb1;
      }

      .st10 {
        fill: #c76848;
      }

      .st11 {
        fill: #3c9bd3;
      }

      .st12 {
        fill: #cc7c4e;
      }

      .st13 {
        fill: #acd2ea;
      }

      .st14 {
        fill: #dee3e9;
      }

      .st15 {
        fill: #fff;
      }

      .st16 {
        fill: #d2b076;
      }

      .st17 {
        fill: #d9b065;
      }

      .st18 {
        fill: #796254;
      }

      .st19 {
        fill: none;
      }

      .st20 {
        fill: #d49355;
      }

      .st21 {
        fill: #493e44;
      }

      .st22 {
        fill: #b57451;
      }

      .st23 {
        fill: #b1d5ea;
      }

      .st24 {
        fill: #dde3ea;
      }

      .st25 {
        fill: #e0d79a;
      }

      .st26 {
        fill: #aed4ea;
      }

      .st27 {
        fill: #409fd5;
      }

      .st28 {
        fill: #b85a45;
      }

      .st29 {
        clip-path: url(#clippath-1);
      }

      .st30 {
        fill: #2a7cbb;
      }

      .st31 {
        fill: #e8eaad;
      }

      .st32 {
        fill: url(#Gradiente_sem_nome_12);
      }

      .st33 {
        fill: #a74940;
      }

      .st34 {
        isolation: isolate;
      }

      .st35 {
        clip-path: url(#clippath-5);
      }

      .st36 {
        fill: #94c5e3;
      }

      .st37 {
        fill: #90c4e4;
      }

      .st38 {
        fill: #e1ebc0;
      }

      .st39 {
        fill: #e0eabf;
      }

      .st40 {
        fill: #3e5b63;
      }

      .st41 {
        fill: #ae5142;
      }

      .st42 {
        fill: #c36849;
      }

      .st43 {
        fill: #d6af71;
      }

      .st44 {
        fill: #c68c5b;
      }

      .st45 {
        fill: #b3d7eb;
      }

      .st46 {
        fill: #ce8856;
      }

      .st47 {
        mix-blend-mode: overlay;
      }

      .st48 {
        fill: #57817a;
      }

      .st49 {
        fill: #7dae93;
      }

      .st50 {
        fill: #a9d3b6;
      }

      .st51 {
        fill: #e0cd83;
      }

      .st52 {
        fill: #d08050;
      }

      .st53 {
        clip-path: url(#clippath-2);
      }

      .st54 {
        fill: #cc6c48;
      }

      .st55 {
        fill: #c8784e;
      }

      .st56 {
        fill: #b0d5ec;
      }

      .st57 {
        fill: #cb754d;
      }

      .st58 {
        fill: #c8734b;
      }

      .st59 {
        fill: #d49153;
      }

      .st60 {
        clip-path: url(#clippath);
      }
    </style>
    <linearGradient id="Gradiente_sem_nome_12" data-name="Gradiente sem nome 12" x1="-283.16" y1="-349.47" x2="-282.16" y2="-349.47" gradientTransform="translate(79405.705 48735.0127) rotate(82.5467) scale(206.5 -206.5)" gradientUnits="userSpaceOnUse">
      <stop offset="0" stop-color="#41a0d4"/>
      <stop offset="1" stop-color="#2879b9"/>
    </linearGradient>
    <clipPath id="clippath">
      <rect class="st19" x="178.59" y="172.62" width="81.19" height="77.59" transform="translate(-83.55 244.45) rotate(-50.19)"/>
    </clipPath>
    <clipPath id="clippath-1">
      <rect class="st19" x="178.59" y="172.62" width="81.19" height="77.59" transform="translate(-83.55 244.45) rotate(-50.19)"/>
    </clipPath>
    <clipPath id="clippath-2">
      <rect class="st19" x="178.59" y="172.62" width="81.19" height="77.59" transform="translate(-83.55 244.45) rotate(-50.19)"/>
    </clipPath>
    <clipPath id="clippath-3">
      <rect class="st19" x="238.3" y="222.49" width="78.03" height="74.71" transform="translate(-99.83 306.52) rotate(-50.19)"/>
    </clipPath>
    <clipPath id="clippath-5">
      <rect class="st19" x="180.54" y="173.77" width="77.79" height="74.71" transform="translate(-83.24 244.54) rotate(-50.19)"/>
    </clipPath>
  </defs>
  <g class="st34">
    <g id="Camada_1">
      <g>
        <path class="st15" d="M87.59,107.92c4.81-11.28,11.45-22.13,18.97-32.61,7.62-10.61,16.2-19.72,25.64-28.45-13.82,8.99-25.74,20.02-36.43,32.61-6.35,7.48-11.48,15.41-16.6,23.4-13.37,20.92-21.79,45.51-23.49,71.09-1.97,29.63,5.89,58.47,21.62,82.92-14.87-20.25-22.38-35.58-28.12-61.46-3.53-15.88-3.79-31.39-2-47.63-10.3,41.92,3.41,89.08,30.74,122.42,7.95,9.7,17.01,17.9,27.3,25.26,42.88,30.71,99.33,34.13,142.32,1.82.91-.69,1.47-1.36,1.71-2.25,7.61-5.31,14.23-12.14,20.19-19.42l-5.63,4.47c-11.29,8.96-24.04,15.22-37.62,19.22.04-.49-.91-.58-1.55-.44-18.93,4.11-37.93,3.05-56.47-2.85-17.47-5.56-33.01-14.47-46.5-27.12-17.07-16.01-29.64-36.55-36.54-58.88-8.92-28.87-7.27-58.97,4.69-86.63,11.78-27.26,31.79-53.09,55.63-70.85,27.24-20.3,59.55-32.18,92.9-34.93-10.62-.53-20.33.57-30.71,2.29-27.62,4.57-53.1,16.43-74.99,34.04-18.85,15.17-33.51,33.85-45.06,53.97ZM365.37,54.9c-10.2-4.23-20.24-11.44-29.8-16.16-14.16-6.99-33.56-15.74-49.19-14.37,9.18,2.5,17.55,5.59,26.34,9.48,11.86,5.25,22.35,11.61,33.52,18.01,6.94,3.98,14.16,7.14,21.84,8.38,5.72.93,11.8-2.1,12.85-7.8-4.98,3.92-9.83,4.84-15.56,2.46ZM141.12,264.82c11.52,9.95,23.95,18.54,38.61,23.62-.55-1.3-2.02-1.33-3.17-1.95-19.31-10.28-34.09-26.2-44.25-45.03.52.06.54-.65.11-.89-4.63-11.87-8.66-23.86-9.53-36.31l-.46-6.53c-1.04-14.79,2.36-34.91,8.07-49.21,9.51-23.8,25.8-44.15,47.08-58.72,37.41-25.61,84.84-32.53,128.01-21.78.52.13,1.41,1,1.63.02,28.87,9.63,55.68,24.99,75.39,49.16-1.45-3.82-4-6.28-6.56-9.33-24.76-34.92-71.19-59.51-113.88-63.33-19.7-1.77-39.04-.18-57.98,4.87-2.54.68-4.85,1.32-7.02,2.11-.83-.32-.29-.83.41-.54,39.87-15.08,81.01-18.15,121.07,1.05,8.79,4.21,16.75,8.66,25.16,13.24,10.88,5.92,24.32,11.6,36.89,8.08,10.96-3.07,17.6-14.38,14.15-25.36-2.34-7.46-9.32-13.15-17.07-13.89-6.13-.59-12.39,1.55-15.47,7.23,7.05-4.11,14.27-4.56,20.44.5,4.27,3.51,6.39,8.28,5.12,14.03-.97,4.4-4.75,8.42-9.88,9.82-13.84,3.78-27.26-4.64-38.49-10.94-8.27-4.65-16.3-9.08-24.99-13.03-47.75-21.7-103.61-16.04-149.41,7.66-24.1,12.47-44.77,30.84-59.72,53.37-16.66,25.1-23.71,54.74-19.29,84.69,1.91,12.98,5.47,25.84,12.36,37.19-8.44-22.9-10.67-46.06-5.81-69.79,7.19-35.14,27.94-66.99,57.44-87.54-7.06,7.04-13.68,13.92-19.67,21.9-8.41,11.2-15.6,22.71-21.05,35.63-13.89,32.9-15.03,71.55,1.89,103.5,7.4,13.96,16.91,26.35,29.04,36.48.43.36.69.51.82.02ZM54.23,104.31c-5.55,10.2-11.59,24.83-10.55,36.01,3.78-14.17,9.71-26.72,18.06-38.43,2.99-4.19,5.7-7.98,8.17-12.35,3.76-6.65,5.13-14.64,1.96-21.68-1.9-4.22-6-7.25-9.62-8.22-5.06-1.35-9.83-.38-13.65,2.86-5.14,4.37-6.62,12.1-3.85,18.14.99,2.16,2.26,4.22,4.79,4.48-3.06-5.19-3.28-10.79.01-15.34,2.14-2.96,5.48-4.61,9.24-3.76,2.79.63,5.92,2.92,6.93,6.43,2.83,9.85-6.41,22.49-11.5,31.85ZM355.01,142.82c37.4,39.09,54.35,95.86,40.59,148.14.1.55.59.59.55.05,6.69-19.39,9.99-39.3,8.95-60.1-1.68-33.52-14.05-68.62-35.26-94.87-12.95-16.04-29.5-28.56-48.02-37.69-20.49-10.09-42.74-15.14-65.56-15.74-2.15-.06-3.84-.5-5.78.09-1.57.48-3.47.37-5.37-.06,37.05-6.24,78.42,5.52,108.86,28.62,33.54,25.44,54.25,64.47,59.91,105.68.29,2.09-.05,3.94.76,6.06.56-58.57-31.72-115.11-86.45-140.03-41.43-18.86-85.67-19.23-127.12-.79-26.46,11.77-48.41,31.25-62.78,56.4-8.24,14.41-13.56,30.04-14.86,46.54-2.43,30.7,8.97,60.54,33.77,79.64-6.35-8.71-11.8-16.41-16.13-25.81-7.53-16.35-10.67-33.62-9.23-51.53,1.43-17.81,6.72-34.29,16.31-49.5,9.07-14.38,20.86-26.5,35.07-35.62l-13.17,12.54c-10.73,10.22-18.27,22.81-24.15,36.49-5.08,11.82-7.6,24.2-8.33,36.92-.03.56-1.14,1.45.05,2.27,4.27-21.85,17.38-44.05,34.09-59.6,36.24-33.73,87.7-41.51,133.03-22.48,19.02,7.98,35.86,19.32,50.27,34.38ZM179.22,137.36c-.68.5-11.52,10.89-11.06,9.81-.11.25.05.9.38.63,11.26-9.09,24.03-15.71,37.67-19.89-.11.27-.29,1.18.51,1,18.33-4.02,37.02-2.98,54.92,2.49,41.63,12.71,74.4,45.32,88.12,86.58,14.04,42.22,7.4,80.43-18.53,115.99-10.34,14.17-22.35,26.55-36.47,36.99-2.55,1.88-5.17,3.33-7.09,5.49-.89.37-1.83.84-3.04,1.53l-.75.43c-.97.56.94,1.24,3.79-1.96,9.73-4.07,18.34-10.65,26.97-17.48,18.47-14.64,34.95-36.41,43.44-57.73.11-.27.04-.67.32-.81.18-.08.46.01.77,0-11.11,30.15-22.12,48.86-47.22,70.86-17.17,15.06-36.94,25.97-57.71,33.75,2.95.4,4.76-1.21,7.1-1.95,48.74-15.51,90.11-50.6,110.12-98.35,3.34-7.97,5.31-16.14,6.83-24.34,1.01.14-.51,1.29,1.09,2.22,5.78-22.27,6.33-43.76,1.44-66.91,7.1,18.36,9.7,38.29,8.15,58.14-.14,1.82-.61,3.15-.8,4.59-2.66,19.52-9.49,38.28-20.09,55.48-6.66,10.8-12.73,19.98-13.21,33.03-.45,12.04,6.6,22.91,19.34,22.86,11.76-.05,20.51-9.75,20.82-21.36.21-7.97-3.46-15.72-11.59-18.08,6.03,5.03,7.83,11.78,6.12,18.94-1.69,7.09-7.67,12.92-15.23,12.38-5.51-.39-9.63-4.01-11.14-9.22-2.85-9.85,1.68-21.74,6.47-30.52,5.37-9.84,14.16-25.38,16.32-35.69l3.65-17.38c3.41-16.26,5.7-33.02,3.71-49.97-4.15-35.33-20.59-67.88-46.32-92.35-39.84-37.89-99.7-49.82-149.31-23.11-6.31,3.4-11.42,7.44-16.93,11.66-.83.64-1.65,1.21-1.57,2.26ZM288.7,154.42c4.18,5.08,8.31,10.34,11.58,16.37,4.01,7.4,7.34,14.85,9.43,22.65-6.9-14.8-16.96-28.55-30.96-38.52,8.79,10.7,16.18,21.76,20.75,34.65,4.65,13.12,7.28,26.74,6.62,40.88-1.57,33.93-18.62,65.36-45.55,85.75-1.08.82-1.37,2.42-3,2.13,13.34-12.39,24.29-25.49,32.06-42.06,5.75-12.25,9.85-25.14,10.46-38.94-17.87,66.97-91.57,106.99-158.06,85.22-23.05-7.55-44.51-21.86-60.92-40.16-21.8-24.32-35.56-54.05-39.96-86.4-1.95-14.3-1.07-27.85.44-42.28-5.06,16.59-6.17,33.87-4.38,51.32,3.21,31.15,15.86,60.55,35.44,84.85,24.71,30.67,63.71,47.46,102.47,49.62,9.47.53,17.91-.28,27.21-1.48-35.52,9.76-80.92.14-111.36-22.47-16.09-11.96-29.52-26.67-40.52-43.49-13.94-21.31-22.93-45.43-25.97-70.63-.27-2.26-.04-4.27-.7-6.55-1.26,57.06,30.82,111.93,81.12,139.9,47.89,26.64,109.69,20.62,154.29-9.8,28.75-19.61,49.44-50.36,54.56-83.56.07-.46-.3-.81.16-.99.2-.08.42-.26.68-.08-.35,3.87-1.5,7.73-2.28,11.66-4.45,22.51-14.85,42.89-30.67,59.91-12.17,13.1-26.67,23.62-42.93,31.05-47.71,21.8-99.29,17.73-143.97-8.07-19.93-12.38-38.21-28.4-51.98-49.09-.13,1.61.93,2.34,1.61,3.5,26.91,45.75,68.76,78.3,121.91,86.42,23.42,3.58,46.73.09,67.89-7.8-.06.12.17.83-.05.91l-17.97,6.25c-19.36,6.74-39.54,8.64-59.96,6.65-17.92-1.75-34.43-7.25-49.89-16.02-6.02-3.42-11.84-6.58-18.08-9.71-10.11-5.08-20.63-8.24-31.41-3.9-8.25,3.32-12.56,11.99-10.57,20.76,1.55,6.83,6.46,11.78,12.82,13.01,6.6,1.27,13.69-1.35,17.24-7.44-4.66,2.77-9.04,4.7-14.11,3.63-5.03-1.06-8.12-4.29-9.23-9.13-1.47-6.42,1.54-12.23,7.81-14.62,9.3-3.54,19.93,1.1,28.22,5.79l16.05,9.08c26.18,14.81,55.42,22.05,85.62,20.92,19.55-.73,38.2-3.92,56.98-9.76,35.47-11.02,67.27-29.44,86.32-62.03,20.21-34.56,21.89-74.66,5.73-110.56,4.1,14.72,6.51,29.32,5.67,44.63-2.17,39.42-22.85,75.01-55.35,97.06-16.02,10.86-33.79,19.36-52.96,23.51,30.87-10.9,57.17-27.43,77.49-54.17,12.52-16.47,20.19-35.65,23.41-55.98,5.26-33.18-3.04-67.35-23.85-93.85-11.73-14.93-26.92-27-45.08-33.56,7.47,4.26,13.23,9.95,19.66,15.01Z"/>
        <path class="st1" d="M355.01,142.82c-14.41-15.06-31.25-26.4-50.27-34.38-45.34-19.02-96.79-11.24-133.03,22.48-16.71,15.55-29.81,37.75-34.09,59.6-1.18-.83-.08-1.71-.05-2.27.72-12.72,3.24-25.1,8.33-36.92,5.88-13.68,13.43-26.28,24.15-36.49l13.17-12.54c-14.22,9.12-26,21.24-35.07,35.62-9.6,15.21-14.89,31.69-16.31,49.5-1.44,17.91,1.7,35.18,9.23,51.53,4.33,9.4,9.77,17.1,16.13,25.81-24.8-19.1-36.2-48.93-33.77-79.64,1.31-16.51,6.63-32.13,14.86-46.54,14.37-25.14,36.32-44.63,62.78-56.4,41.45-18.44,85.68-18.07,127.12.79,54.74,24.91,87.01,81.46,86.45,140.03-.8-2.12-.47-3.98-.76-6.06-5.66-41.21-26.36-80.24-59.91-105.68-30.45-23.09-71.82-34.86-108.86-28.62,1.9.43,3.79.53,5.37.06,1.94-.59,3.63-.14,5.78-.09,22.82.6,45.07,5.65,65.56,15.74,18.53,9.12,35.07,21.65,48.02,37.69,21.21,26.25,33.57,61.35,35.26,94.87,1.04,20.8-2.26,40.71-8.95,60.1.04.54-.45.5-.55-.05,13.76-52.28-3.19-109.04-40.59-148.14ZM197.18,51.52c-22.04,8.02-41.68,21.07-57.63,38.79-21.72,24.13-35.43,55.16-35.48,88.1-.02,11.87,3.11,32.46,8.57,42.05,5.12,17.03,16.75,31.37,28.48,44.36-.13.49-.39.34-.82-.02-12.14-10.13-21.65-22.51-29.04-36.48-16.93-31.95-15.79-70.6-1.89-103.5,5.46-12.93,12.64-24.44,21.05-35.63,6-7.98,12.62-14.86,19.67-21.9-29.5,20.55-50.25,52.4-57.44,87.54-4.85,23.73-2.63,46.89,5.81,69.79-6.89-11.35-10.45-24.2-12.36-37.19-4.41-29.95,2.63-59.59,19.29-84.69,14.95-22.53,35.62-40.9,59.72-53.37,45.8-23.71,101.66-29.37,149.41-7.66,8.68,3.95,16.72,8.38,24.99,13.03,11.23,6.31,24.64,14.72,38.49,10.94,5.13-1.4,8.91-5.42,9.88-9.82,1.27-5.74-.85-10.52-5.12-14.03-6.17-5.07-13.39-4.62-20.44-.5,3.08-5.69,9.34-7.82,15.47-7.23,7.75.74,14.74,6.44,17.07,13.89,3.44,10.98-3.2,22.29-14.15,25.36-12.56,3.52-26.01-2.16-36.89-8.08-8.41-4.57-16.37-9.03-25.16-13.24-40.06-19.2-81.2-16.13-121.07-1.05-.7-.29-1.25.22-.41.54Z"/>
        <path class="st37" d="M309.71,193.44c1.49,5.56,3.81,11,4.67,16.85.14.93.23,1.8.45,2.57.69,9.18.6,18.31-.23,27.48-.26-.18-.47,0-.68.08-.46.18-.08.53-.16.99-5.12,33.2-25.81,63.95-54.56,83.56-44.6,30.42-106.4,36.44-154.29,9.8-50.29-27.97-82.37-82.85-81.12-139.9.66,2.28.42,4.29.7,6.55,3.05,25.2,12.04,49.32,25.97,70.63,11,16.82,24.43,31.53,40.52,43.49,30.44,22.62,75.84,32.23,111.36,22.47-9.31,1.2-17.75,2-27.21,1.48-38.76-2.16-77.76-18.95-102.47-49.62-19.58-24.3-32.23-53.7-35.44-84.85-1.8-17.46-.68-34.74,4.38-51.32-1.52,14.43-2.39,27.98-.44,42.28,4.41,32.35,18.16,62.08,39.96,86.4,16.4,18.3,37.87,32.62,60.92,40.16,66.49,21.77,140.19-18.25,158.06-85.22-.61,13.79-4.71,26.69-10.46,38.94-7.78,16.57-18.72,29.67-32.06,42.06,1.62.29,1.92-1.31,3-2.13,26.93-20.39,43.98-51.82,45.55-85.75.65-14.14-1.97-27.76-6.62-40.88-4.57-12.89-11.96-23.95-20.75-34.65,14,9.97,24.06,23.73,30.96,38.52Z"/>
        <path class="st14" d="M234.18,367.92c26.1-9.73,49.85-25.88,67.75-47.69,7.8-9.51,14.34-19.72,18.83-31.36,8.14-21.07,10.02-43.71,6.31-65.91-4.35-26.01-18.25-52.71-38.38-68.54-6.43-5.06-12.19-10.75-19.66-15.01,18.16,6.55,33.35,18.62,45.08,33.56,20.81,26.49,29.11,60.67,23.85,93.85-3.22,20.33-10.89,39.51-23.41,55.98-20.33,26.75-46.62,43.28-77.49,54.17,19.17-4.15,36.94-12.65,52.96-23.51,32.5-22.05,53.18-57.64,55.35-97.06.85-15.32-1.57-29.92-5.67-44.63,16.16,35.9,14.48,75.99-5.73,110.56-19.05,32.58-50.86,51-86.32,62.03-18.78,5.84-37.43,9.02-56.98,9.76-30.2,1.13-59.44-6.11-85.62-20.92l-16.05-9.08c-8.29-4.69-18.92-9.32-28.22-5.79-6.27,2.39-9.29,8.19-7.81,14.62,1.11,4.83,4.19,8.07,9.23,9.13,5.07,1.07,9.45-.86,14.11-3.63-3.55,6.08-10.64,8.71-17.24,7.44-6.35-1.23-11.26-6.18-12.82-13.01-2-8.77,2.32-17.44,10.57-20.76,10.79-4.35,21.3-1.18,31.41,3.9,6.24,3.13,12.06,6.29,18.08,9.71,15.47,8.78,31.98,14.27,49.89,16.02,20.41,1.99,40.6.09,59.96-6.65l17.97-6.25c.23-.08,0-.78.05-.91Z"/>
        <path class="st32" d="M378.31,280.38c-1.52,8.2-3.49,16.37-6.83,24.34-20.01,47.76-61.38,82.85-110.12,98.35-2.34.75-4.15,2.35-7.1,1.95,20.77-7.78,40.54-18.69,57.71-33.75,25.09-22,36.11-40.71,47.22-70.86,14.86-45.46,5.54-94.27-25.71-130.86-23.73-27.79-58.99-46.62-96.29-46.19-10.62.12-21.08,1.51-30.97,4.54-13.64,4.18-26.4,10.8-37.67,19.89-.33.27-.48-.39-.38-.63-.47,1.08,10.38-9.31,11.06-9.81,8.84-6.5,18.09-11.94,28.65-15.83,27.26-10.03,57.16-9.5,84.36,1.27,62.91,24.91,98.33,91.51,86.08,157.59Z"/>
        <path class="st6" d="M234.18,367.92c-21.15,7.89-44.47,11.38-67.89,7.8-53.14-8.12-94.99-40.67-121.91-86.42-.68-1.16-1.74-1.88-1.61-3.5,13.76,20.69,32.05,36.71,51.98,49.09.94,2.06-9.64-5.5-10.2-5.89-9.11-6.37-16.77-13.65-25.75-21.06,6.33,8.53,14.13,15.66,22.23,22.59,27.75,23.74,65.79,38.2,102.71,36.88,57.93-2.07,113.73-39.94,129.77-97.05,5.3-18.86,6.58-39.37,1.33-57.5-.22-.76-.31-1.64-.45-2.57-.86-5.85-3.18-11.29-4.67-16.85-2.08-7.8-5.42-15.25-9.43-22.65-3.27-6.04-7.4-11.29-11.58-16.37,20.13,15.83,34.04,42.53,38.38,68.54,3.71,22.2,1.82,44.85-6.31,65.91-4.5,11.64-11.03,21.86-18.83,31.36-17.9,21.8-41.65,37.96-67.75,47.69Z"/>
        <path class="st11" d="M87.59,107.92c-6.96,16.3-11.28,28.12-13.92,46.57-7.64,53.55,15.47,107.1,62.64,134.33,13.6,7.85,28.65,12.57,44.36,14.53,8.71,1.08,16.92.88,25.51.17,7.02-.58,13.59-2.29,20.01-4.19,13.58-4,26.33-10.26,37.62-19.22l5.63-4.47c-5.96,7.28-12.59,14.11-20.19,19.42-12.64,8.83-26.96,15.14-42.06,18.3-.78-1.15-2.41-.19-3.47-.08l-4.45.48c-32.28,3.49-70.43-13.53-94.29-37.12-22.45-22.2-37.27-51.27-41.87-82.7-3.58-24.44-.55-48.93,7.84-71.91,2.46-6.72,4.97-12.84,8.67-18.79.15-.23-.26-.4-.44-.37,5.11-8,10.25-15.92,16.6-23.4,10.69-12.59,22.61-23.63,36.43-32.61-9.44,8.74-18.02,17.84-25.64,28.45-7.52,10.47-14.15,21.33-18.97,32.61Z"/>
        <path class="st2" d="M376.06,107.87c2.56,3.05,5.1,5.52,6.56,9.33-19.72-24.17-46.52-39.53-75.39-49.16-37.23-12.42-77.44-11.05-113.62,6.01-9.11,4.29-17.49,9.12-25.59,15.23-33.8,25.47-53.9,64.74-50.31,107.6,1.36,16.31,7.18,30.8,14.62,44.58,10.16,18.83,24.94,34.74,44.25,45.03,1.15.61,2.62.64,3.17,1.95-14.67-5.08-27.09-13.67-38.61-23.62-11.73-12.99-23.36-27.33-28.48-44.36-5.17-17.21-5.54-35.26-2.97-53.04,3.45-23.93,14.31-45.44,29.65-63.65,23.81-28.28,57.01-46.7,93.87-51.25,23.15-2.86,46.24-.86,68.49,6.53,22.04,7.32,43.11,17.46,59.22,34.07l13.11,13.51c.65.67,1.24,1.29,2.06,1.25Z"/>
        <path class="st45" d="M226.19,299.32c-6.43,1.89-13,3.6-20.01,4.19-8.58.71-16.8.91-25.51-.17-15.7-1.96-30.76-6.68-44.36-14.53-47.16-27.22-70.28-80.78-62.64-134.33,2.63-18.44,6.96-30.27,13.92-46.57,11.55-20.12,26.21-38.8,45.06-53.97,21.89-17.61,47.36-29.47,74.99-34.04,10.38-1.72,20.09-2.82,30.71-2.29-33.36,2.74-65.66,14.63-92.9,34.93-23.83,17.76-43.84,43.59-55.63,70.85-11.96,27.66-13.6,57.76-4.69,86.63,6.9,22.33,19.46,42.87,36.54,58.88,13.49,12.65,29.03,21.56,46.5,27.12,18.54,5.9,37.54,6.95,56.47,2.85.63-.14,1.59-.04,1.55.44Z"/>
        <path class="st27" d="M94.75,334.9c44.68,25.8,96.26,29.87,143.97,8.07,16.27-7.43,30.76-17.95,42.93-31.05,15.82-17.02,26.21-37.39,30.67-59.91.78-3.94,1.93-7.79,2.28-11.66.83-9.17.92-18.3.23-27.48,5.25,18.13,3.97,38.64-1.33,57.5-16.04,57.11-71.84,94.98-129.77,97.05-36.92,1.32-74.96-13.14-102.71-36.88-8.1-6.93-15.9-14.06-22.23-22.59,8.98,7.42,16.64,14.69,25.75,21.06.56.39,11.14,7.95,10.2,5.89Z"/>
        <path class="st23" d="M359.18,300.42c-.31.02-.59-.08-.77,0-.28.13-.21.54-.32.81-8.5,21.32-24.98,43.09-43.44,57.73-8.62,6.83-17.24,13.42-26.97,17.48,1.92-2.16,4.55-3.61,7.09-5.49,14.12-10.43,26.13-22.81,36.47-36.99,25.93-35.56,32.57-73.77,18.53-115.99-13.72-41.26-46.5-73.87-88.12-86.58-17.91-5.47-36.59-6.51-54.92-2.49-.8.17-.62-.73-.51-1,9.89-3.04,20.35-4.42,30.97-4.54,37.31-.42,72.56,18.4,96.29,46.19,31.25,36.6,40.57,85.4,25.71,130.86Z"/>
        <path class="st14" d="M389.64,288.87c-1.12.44-.66-11.95-1.46-10.45.2-1.44.66-2.77.8-4.59,1.55-19.85-1.05-39.78-8.15-58.14,4.89,23.15,4.34,44.65-1.44,66.91-1.59-.93-.08-2.09-1.09-2.22,12.25-66.08-23.16-132.68-86.08-157.59-27.2-10.77-57.1-11.3-84.36-1.27-10.57,3.89-19.82,9.33-28.65,15.83-.09-1.04.73-1.62,1.57-2.26,5.51-4.23,10.62-8.27,16.93-11.66,49.61-26.71,109.46-14.78,149.31,23.11,25.73,24.47,42.17,57.03,46.32,92.35,1.99,16.95-.3,33.72-3.71,49.97Z"/>
        <path class="st5" d="M376.06,107.87c-.83.05-1.41-.58-2.06-1.25l-13.11-13.51c-16.11-16.6-37.17-26.74-59.22-34.07-22.25-7.39-45.33-9.39-68.49-6.53-36.86,4.55-70.06,22.97-93.87,51.25-15.34,18.22-26.2,39.72-29.65,63.65-2.56,17.78-2.2,35.83,2.97,53.04-5.45-9.59-8.59-30.18-8.57-42.05.05-32.93,13.75-63.97,35.48-88.1,15.96-17.73,35.6-30.77,57.63-38.79,2.17-.79,4.48-1.44,7.02-2.11,18.94-5.05,38.28-6.63,57.98-4.87,42.69,3.83,89.12,28.42,113.88,63.33Z"/>
        <path class="st30" d="M207.18,313.35c-12.78,2.68-26.02,2.73-39.49.64-18.28-2.84-34.82-9.54-50.53-19.07-16.44-9.97-28.9-23.11-39.87-38.04-15.74-24.45-23.6-53.29-21.62-82.92,1.71-25.58,10.12-50.17,23.49-71.09.18-.03.59.13.44.37-3.7,5.95-6.22,12.07-8.67,18.79-8.39,22.98-11.42,47.46-7.84,71.91,4.6,31.43,19.42,60.5,41.87,82.7,23.86,23.59,62.01,40.61,94.29,37.12l4.45-.48c1.06-.11,2.7-1.07,3.47.08Z"/>
        <path class="st24" d="M77.3,256.89c10.97,14.93,23.43,28.07,39.87,38.04,15.71,9.53,32.25,16.22,50.53,19.07,13.46,2.09,26.7,2.04,39.49-.64,15.1-3.16,29.42-9.47,42.06-18.3-.24.89-.8,1.56-1.71,2.25-42.99,32.31-99.44,28.89-142.32-1.82-10.28-7.37-19.34-15.56-27.3-25.26-27.34-33.34-41.04-80.5-30.74-122.42-1.79,16.24-1.52,31.75,2,47.63,5.74,25.88,13.25,41.21,28.12,61.46Z"/>
        <path class="st56" d="M307.22,68.05c-.22.98-1.11.11-1.63-.02-43.17-10.75-90.6-3.83-128.01,21.78-21.28,14.57-37.57,34.92-47.08,58.72-5.71,14.3-9.11,34.41-8.07,49.21l.46,6.53c.87,12.45,4.91,24.44,9.53,36.31.43.24.42.95-.11.89-7.44-13.78-13.25-28.27-14.62-44.58-3.59-42.86,16.51-82.13,50.31-107.6,8.1-6.1,16.49-10.93,25.59-15.23,36.18-17.06,76.4-18.43,113.62-6.01Z"/>
        <path class="st36" d="M389.64,288.87l-3.65,17.38c-2.16,10.31-10.95,25.86-16.32,35.69-4.79,8.78-9.32,20.67-6.47,30.52,1.51,5.21,5.63,8.82,11.14,9.22,7.56.54,13.54-5.28,15.23-12.38,1.7-7.17-.1-13.91-6.12-18.94,8.13,2.36,11.8,10.11,11.59,18.08-.31,11.61-9.06,21.31-20.82,21.36-12.74.05-19.79-10.82-19.34-22.86.49-13.06,6.56-22.23,13.21-33.03,10.6-17.2,17.43-35.96,20.09-55.48.8-1.5.34,10.9,1.46,10.45Z"/>
        <path class="st13" d="M54.23,104.31c5.09-9.35,14.33-21.99,11.5-31.85-1.01-3.51-4.13-5.8-6.93-6.43-3.76-.85-7.1.8-9.24,3.76-3.29,4.55-3.07,10.14-.01,15.34-2.53-.25-3.8-2.32-4.79-4.48-2.78-6.05-1.3-13.77,3.85-18.14,3.82-3.24,8.59-4.21,13.65-2.86,3.62.97,7.72,3.99,9.62,8.22,3.17,7.04,1.8,15.03-1.96,21.68-2.47,4.38-5.18,8.16-8.17,12.35-8.35,11.71-14.28,24.25-18.06,38.43-1.04-11.17,5-25.8,10.55-36.01Z"/>
        <path class="st26" d="M365.37,54.9c5.73,2.37,10.58,1.46,15.56-2.46-1.05,5.7-7.13,8.73-12.85,7.8-7.68-1.25-14.9-4.4-21.84-8.38-11.17-6.4-21.66-12.76-33.52-18.01-8.79-3.89-17.16-6.98-26.34-9.48,15.63-1.37,35.03,7.38,49.19,14.37,9.56,4.72,19.6,11.93,29.8,16.16Z"/>
        <path class="st23" d="M287.68,376.44c-2.85,3.2-4.76,2.51-3.79,1.96l.75-.43c1.21-.69,2.15-1.16,3.04-1.53Z"/>
      </g>
      <g class="st60">
        <g class="st29">
          <g class="st53">
            <g class="st47">
              <g class="st35">
                <rect class="st33" x="209.79" y="160.07" width="12.96" height="12.45" transform="translate(-49.94 225.98) rotate(-50.19)"/>
                <rect class="st41" x="219.36" y="168.04" width="12.96" height="12.45" transform="translate(-52.62 236.19) rotate(-50.19)"/>
                <rect class="st28" x="228.92" y="176.01" width="12.96" height="12.45" transform="translate(-55.3 246.41) rotate(-50.19)"/>
                <rect class="st58" x="238.49" y="183.99" width="12.96" height="12.45" transform="translate(-57.98 256.63) rotate(-50.19)"/>
                <rect class="st59" x="248.05" y="191.96" width="12.96" height="12.45" transform="translate(-60.66 266.84) rotate(-50.19)"/>
                <rect class="st20" x="257.62" y="199.93" width="12.96" height="12.45" transform="translate(-63.35 277.06) rotate(-50.19)"/>
                <rect class="st54" x="201.49" y="170.03" width="12.97" height="12.45" transform="translate(-60.57 223.18) rotate(-50.19)"/>
                <rect class="st10" x="211.05" y="178" width="12.97" height="12.45" transform="translate(-63.26 233.4) rotate(-50.19)"/>
                <rect class="st42" x="220.62" y="185.97" width="12.97" height="12.45" transform="translate(-65.94 243.62) rotate(-50.19)"/>
                <rect class="st55" x="230.19" y="193.95" width="12.97" height="12.45" transform="translate(-68.62 253.83) rotate(-50.19)"/>
                <rect class="st0" x="239.75" y="201.92" width="12.97" height="12.45" transform="translate(-71.3 264.05) rotate(-50.19)"/>
                <rect class="st17" x="249.32" y="209.89" width="12.97" height="12.45" transform="translate(-73.98 274.27) rotate(-50.19)"/>
                <rect class="st57" x="193.19" y="179.99" width="12.97" height="12.45" transform="translate(-71.21 220.39) rotate(-50.19)"/>
                <rect class="st52" x="202.75" y="187.96" width="12.97" height="12.45" transform="translate(-73.89 230.61) rotate(-50.19)"/>
                <rect class="st12" x="212.32" y="195.93" width="12.97" height="12.45" transform="translate(-76.58 240.82) rotate(-50.19)"/>
                <rect class="st46" x="221.88" y="203.91" width="12.97" height="12.45" transform="translate(-79.26 251.04) rotate(-50.19)"/>
                <rect class="st43" x="231.45" y="211.88" width="12.97" height="12.45" transform="translate(-81.94 261.26) rotate(-50.19)"/>
                <rect class="st51" x="241.02" y="219.85" width="12.97" height="12.45" transform="translate(-84.62 271.47) rotate(-50.19)"/>
                <rect class="st4" x="184.89" y="189.95" width="12.96" height="12.45" transform="translate(-81.85 217.6) rotate(-50.19)"/>
                <rect class="st22" x="194.45" y="197.92" width="12.96" height="12.45" transform="translate(-84.53 227.81) rotate(-50.19)"/>
                <rect class="st44" x="204.02" y="205.89" width="12.96" height="12.45" transform="translate(-87.21 238.03) rotate(-50.19)"/>
                <rect class="st16" x="213.59" y="213.87" width="12.96" height="12.45" transform="translate(-89.9 248.25) rotate(-50.19)"/>
                <rect class="st25" x="223.15" y="221.84" width="12.96" height="12.45" transform="translate(-92.58 258.46) rotate(-50.19)"/>
                <rect class="st31" x="232.72" y="229.81" width="12.96" height="12.45" transform="translate(-95.26 268.68) rotate(-50.19)"/>
                <rect class="st21" x="176.59" y="199.91" width="12.97" height="12.45" transform="translate(-92.49 214.81) rotate(-50.19)"/>
                <rect class="st18" x="186.15" y="207.88" width="12.97" height="12.45" transform="translate(-95.17 225.02) rotate(-50.19)"/>
                <rect class="st8" x="195.72" y="215.85" width="12.97" height="12.45" transform="translate(-97.85 235.24) rotate(-50.19)"/>
                <rect class="st3" x="205.28" y="223.83" width="12.97" height="12.45" transform="translate(-100.53 245.45) rotate(-50.19)"/>
                <rect class="st39" x="214.85" y="231.8" width="12.97" height="12.45" transform="translate(-103.22 255.67) rotate(-50.19)"/>
                <rect class="st38" x="224.41" y="239.77" width="12.97" height="12.45" transform="translate(-105.9 265.89) rotate(-50.19)"/>
                <rect class="st40" x="168.29" y="209.87" width="12.96" height="12.45" transform="translate(-103.12 212.01) rotate(-50.19)"/>
                <rect class="st48" x="177.85" y="217.84" width="12.96" height="12.45" transform="translate(-105.81 222.23) rotate(-50.19)"/>
                <rect class="st49" x="187.42" y="225.81" width="12.96" height="12.45" transform="translate(-108.49 232.45) rotate(-50.19)"/>
                <rect class="st7" x="196.99" y="233.79" width="12.96" height="12.45" transform="translate(-111.17 242.66) rotate(-50.19)"/>
                <rect class="st50" x="206.55" y="241.76" width="12.96" height="12.45" transform="translate(-113.85 252.88) rotate(-50.19)"/>
                <rect class="st9" x="216.12" y="249.73" width="12.96" height="12.45" transform="translate(-116.54 263.09) rotate(-50.19)"/>
              </g>
            </g>
          </g>
        </g>
      </g>
    </g>
  </g>
</svg>